<svg xmlns="http://www.w3.org/2000/svg" width="150" height="50" viewBox="0 0 1416 201" version="1.1"><path d="M 303 25.940 C 290.075 26.299, 279.387 26.685, 279.250 26.797 C 279.113 26.908, 279 28.800, 279 31 L 279 35 286.025 35 C 292.729 35, 293.105 35.125, 294.256 37.750 C 295.136 39.757, 295.551 55.542, 295.792 96.207 L 296.121 151.914 288.311 152.207 L 280.500 152.500 280.500 156.500 L 280.500 160.500 312.808 160.764 L 345.116 161.028 344.808 156.764 L 344.500 152.500 334.336 152.216 L 324.172 151.932 322.950 148.716 C 322.180 146.688, 321.550 137.094, 321.246 122.753 L 320.765 100.006 328.632 100.655 C 332.960 101.013, 336.644 101.670, 336.821 102.115 C 336.997 102.561, 339.697 106.986, 342.821 111.949 C 349.400 122.402, 361.466 137.112, 375 151.179 L 384.500 161.053 406.500 160.776 L 428.500 160.500 428.500 156.504 L 428.500 152.508 422.791 151.795 C 412.172 150.469, 403.373 144.249, 383.950 124.339 C 373.739 113.873, 362.099 99.477, 363.129 98.588 C 363.333 98.412, 367.325 96.488, 372 94.312 C 385.768 87.904, 392.805 79.354, 395.118 66.221 C 398.353 47.852, 385.015 32.080, 362 27.061 C 354.976 25.529, 332.870 25.109, 303 25.940 M 501.113 26.484 C 470.603 33.391, 451.480 50.163, 444.935 75.756 C 442.492 85.308, 442.321 103.756, 444.573 114.792 C 449.314 138.024, 464.287 153.083, 488.773 159.245 C 496.259 161.128, 500.272 161.443, 517 161.457 C 534.259 161.472, 537.395 161.216, 544.289 159.229 C 570.678 151.625, 586.293 136.641, 593.186 112.309 C 596.090 102.059, 596.359 80.930, 593.712 71 C 587.765 48.687, 572.891 33.905, 550.300 27.855 C 539.977 25.091, 510.855 24.279, 501.113 26.484 M 615.609 25.823 C 615.233 26.433, 613.381 31.082, 611.496 36.154 C 608.948 43.007, 608.347 45.713, 609.156 46.688 C 611.017 48.930, 614.795 48.143, 619.532 44.528 C 626.158 39.470, 636.154 37.372, 656.411 36.786 L 666.322 36.500 667.171 39.500 C 668.261 43.351, 668.562 63.769, 668.250 112.712 L 668 151.925 658.750 152.212 L 649.500 152.500 649.500 156.500 L 649.500 160.500 682.500 160.500 L 715.500 160.500 715.500 156.500 L 715.500 152.500 705.711 152.213 C 696.137 151.933, 695.897 151.867, 694.740 149.213 C 693.286 145.879, 692.482 84.706, 693.518 56.250 L 694.219 37 700.359 37.001 C 706.777 37.002, 726.082 38.567, 731.847 39.554 C 733.783 39.885, 736.642 41.575, 738.630 43.563 C 742.203 47.136, 745.016 47.890, 746.792 45.750 C 748.103 44.171, 752.286 27.953, 751.568 27.235 C 751.275 26.942, 725.489 26.615, 694.267 26.509 C 663.045 26.403, 632.729 25.956, 626.897 25.515 C 619.422 24.950, 616.093 25.041, 615.609 25.823 M 28.400 27.399 C 28.098 28.187, 27.997 30.107, 28.175 31.666 C 28.441 33.984, 29.046 34.560, 31.500 34.830 C 33.150 35.012, 35.557 36.137, 36.848 37.330 C 42.056 42.143, 54.632 66.169, 85.545 130.364 C 96.573 153.264, 101 161.499, 102.704 162.275 C 106.534 164.020, 109.775 161.743, 112.711 155.245 C 117.102 145.525, 132.911 112.293, 151.836 73 L 169.897 35.500 175.199 35 L 180.500 34.500 180.500 30.500 L 180.500 26.500 158.500 26.500 L 136.500 26.500 136.500 30.500 L 136.500 34.500 144.144 34.790 C 153.045 35.128, 153.459 35.642, 151.378 43.775 C 150.086 48.823, 148.023 53.589, 127.253 99.500 C 114.949 126.697, 113.824 129, 112.842 129 C 111.961 129, 105.675 116.100, 96.962 96.410 C 93.776 89.211, 86.181 73.352, 80.085 61.169 C 73.988 48.986, 69 38.134, 69 37.054 C 69 35.327, 69.809 35.056, 75.750 34.796 L 82.500 34.500 82.500 30.500 L 82.500 26.500 55.725 26.234 C 33.239 26.010, 28.862 26.197, 28.400 27.399 M 196.400 27.401 C 196.098 28.187, 195.997 30.107, 196.175 31.666 C 196.495 34.458, 196.608 34.504, 203.792 34.795 C 210.645 35.072, 211.153 35.252, 212.233 37.795 C 213.036 39.684, 213.504 57.306, 213.783 96.250 L 214.184 152 206.611 152 C 199.433 152, 199.006 152.126, 198.430 154.421 C 198.096 155.752, 197.981 157.665, 198.175 158.671 C 198.507 160.395, 200.256 160.500, 228.514 160.500 L 258.500 160.500 258.500 156.500 L 258.500 152.500 250.763 152.208 C 243.995 151.953, 242.867 151.640, 241.763 149.708 C 240.797 148.019, 240.432 134.289, 240.211 91.291 L 239.922 35.082 248.211 34.791 L 256.500 34.500 256.500 30.500 L 256.500 26.500 226.724 26.235 C 201.650 26.012, 196.862 26.196, 196.400 27.401 M 763.399 27.402 C 763.098 28.188, 762.997 30.107, 763.175 31.666 L 763.500 34.500 772.789 34.788 C 781.859 35.069, 782.103 35.140, 783.118 37.788 C 783.765 39.477, 784.375 61.515, 784.734 96.210 L 785.312 151.921 775.906 152.210 L 766.500 152.500 766.500 156.500 L 766.500 160.500 801.308 160.763 L 836.116 161.026 835.808 156.763 L 835.500 152.500 824.836 152.217 L 814.173 151.934 812.935 148.717 C 812.114 146.582, 811.544 136.671, 811.241 119.250 L 810.785 93 844.892 93 L 879 93 878.986 120.250 C 878.979 135.238, 878.701 148.512, 878.370 149.750 C 877.796 151.891, 877.287 152, 867.902 152 C 858.300 152, 858.022 152.064, 857.430 154.421 C 857.096 155.752, 856.981 157.665, 857.175 158.671 C 857.508 160.401, 859.412 160.500, 892.514 160.500 L 927.500 160.500 927.500 156.500 L 927.500 152.500 917.569 152 L 907.637 151.500 906.637 148.500 C 906.037 146.703, 905.484 123.368, 905.257 90.286 L 904.878 35.071 915.189 34.786 L 925.500 34.500 925.500 30.500 L 925.500 26.500 890.500 26.500 L 855.500 26.500 855.500 30.500 L 855.500 34.500 865.788 34.785 C 875.364 35.051, 876.134 35.224, 876.903 37.285 C 877.357 38.503, 878.053 49.288, 878.448 61.250 L 879.166 83 845.083 83 L 811 83 811 59.034 L 811 35.068 821.750 34.784 L 832.500 34.500 832.500 30.500 L 832.500 26.500 798.224 26.237 C 769.267 26.015, 763.862 26.195, 763.399 27.402 M 947.400 27.400 C 947.098 28.187, 946.997 30.107, 947.175 31.666 C 947.495 34.455, 947.616 34.505, 954.715 34.793 L 961.930 35.086 962.959 38.793 C 963.607 41.126, 963.991 62.774, 963.994 97.206 L 964 151.912 956.750 152.206 L 949.500 152.500 949.500 156.500 L 949.500 160.500 979.250 160.765 L 1009 161.030 1009 156.515 L 1009 152 1001.098 152 L 993.196 152 992.098 148.851 C 991.352 146.711, 991 127.972, 991 90.393 L 991 35.084 998.750 34.792 L 1006.500 34.500 1006.500 30.500 L 1006.500 26.500 977.224 26.235 C 952.581 26.012, 947.862 26.196, 947.400 27.400 M 1026.434 28.406 C 1025.081 33.799, 1025.903 34.477, 1034.177 34.791 C 1041.777 35.079, 1041.841 35.104, 1043.048 38.291 C 1043.888 40.507, 1044.483 54.652, 1044.970 84 C 1045.622 123.262, 1045.835 126.982, 1047.759 132.832 C 1051.445 144.040, 1056.130 148.996, 1068.276 154.536 C 1078.285 159.101, 1091.370 161.213, 1110.500 161.350 C 1129.077 161.484, 1135.436 160.398, 1146 155.288 C 1153.242 151.785, 1161.931 142.990, 1165.387 135.663 C 1170.307 125.235, 1170.963 119.353, 1170.988 85.500 C 1171 68.450, 1171.300 50.130, 1171.653 44.789 L 1172.296 35.079 1179.898 34.789 L 1187.500 34.500 1187.500 30.500 L 1187.500 26.500 1162 26.500 L 1136.500 26.500 1136.500 30.500 L 1136.500 34.500 1145.403 35 L 1154.307 35.500 1155.623 39.313 C 1157.895 45.896, 1159 62.292, 1159 89.424 C 1159 118.182, 1158.014 125.181, 1152.680 134.284 C 1145.924 145.811, 1128.943 151.953, 1109.302 149.972 C 1086.191 147.643, 1074.970 138.874, 1072.047 120.862 C 1070.860 113.543, 1070.633 38.126, 1071.793 36.301 C 1072.232 35.610, 1075.510 34.974, 1079.528 34.801 L 1086.500 34.500 1086.500 30.500 L 1086.500 26.500 1056.773 26.235 L 1027.046 25.970 1026.434 28.406 M 1206 29.883 C 1206 33.993, 1207.303 34.955, 1212.912 34.986 C 1216.949 35.009, 1223.570 39.579, 1225.560 43.716 C 1227.667 48.097, 1227.686 50.259, 1225.993 91 C 1225.365 106.125, 1224.547 125.925, 1224.175 135 L 1223.500 151.500 1216.500 152 L 1209.500 152.500 1209.500 156.500 L 1209.500 160.500 1232 160.500 L 1254.500 160.500 1254.500 156.500 L 1254.500 152.500 1247.208 152.205 C 1240.372 151.929, 1239.841 151.742, 1238.708 149.205 C 1237.232 145.900, 1237.302 67.935, 1238.785 64.003 C 1239.672 61.651, 1239.937 61.926, 1243.385 68.771 C 1256.791 95.393, 1294.441 161.660, 1297.095 163.305 C 1297.973 163.849, 1299.773 164.018, 1301.095 163.680 C 1303.061 163.178, 1305.823 158.447, 1316.215 137.783 C 1323.207 123.877, 1335.132 100.611, 1342.715 86.079 L 1356.500 59.659 1357.133 66.079 C 1357.481 69.611, 1357.819 90.367, 1357.883 112.204 L 1358 151.909 1351.250 152.204 L 1344.500 152.500 1344.500 156.500 L 1344.500 160.500 1372.986 160.500 C 1399.790 160.500, 1401.493 160.392, 1401.825 158.671 C 1402.019 157.665, 1401.904 155.752, 1401.570 154.421 C 1401.004 152.169, 1400.506 152, 1394.430 152 L 1387.898 152 1386.405 148.426 C 1385.584 146.461, 1384.455 139.824, 1383.897 133.676 C 1382.726 120.771, 1383.105 39.350, 1384.348 36.797 C 1384.954 35.553, 1386.702 35.014, 1390.839 34.797 L 1396.500 34.500 1396.500 30.500 L 1396.500 26.500 1379.426 26.227 C 1364.118 25.983, 1362.193 26.138, 1360.817 27.727 C 1359.331 29.444, 1337.667 70.369, 1317.403 109.740 C 1311.956 120.322, 1307.201 128.984, 1306.835 128.990 C 1306.470 128.995, 1305.089 127.088, 1303.766 124.750 C 1302.443 122.413, 1295.257 109.925, 1287.797 97 C 1280.337 84.075, 1269.179 64.275, 1263.001 53 C 1256.824 41.725, 1250.673 31.038, 1249.334 29.250 L 1246.898 26 1226.449 26 L 1206 26 1206 29.883 M 321.667 35.667 C 321.300 36.033, 321 48.684, 321 63.780 L 321 91.227 334.750 90.749 C 350.100 90.216, 355.281 88.866, 361.435 83.793 C 366.763 79.401, 368.956 74.067, 368.956 65.500 C 368.956 56.565, 366.854 51.852, 360.198 45.868 C 354.610 40.844, 346.994 37.528, 337.500 35.986 C 330.565 34.860, 322.634 34.700, 321.667 35.667 M 499.723 36.420 C 493.975 37.966, 485.550 43.608, 481.678 48.505 C 478.075 53.061, 474.567 60.734, 472.308 69 C 469.780 78.250, 469.852 103.664, 472.433 113.500 C 477.745 133.737, 486.702 144.349, 503.985 150.881 C 513.208 154.367, 529.782 154.492, 538.239 151.139 C 553.688 145.016, 563.451 132.181, 567.249 113 C 568.915 104.583, 568.578 82.633, 566.669 75.275 C 560.205 50.360, 539.528 34.858, 513.040 35.067 C 508.343 35.105, 502.350 35.713, 499.723 36.420" stroke="none" fill="#fffcfc" fill-rule="evenodd"/><path d="" stroke="none" fill="#fcfcfc" fill-rule="evenodd"/></svg>
